<svg width="40" height="40" viewBox="0 0 40 40" fill="none" xmlns="http://www.w3.org/2000/svg">
<g clip-path="url(#clip0_1_2)">
<path d="M20 39.2C30.6039 39.2 39.2 30.6039 39.2 20C39.2 9.39613 30.6039 0.799999 20 0.799999C9.39613 0.799999 0.799999 9.39613 0.799999 20C0.799999 30.6039 9.39613 39.2 20 39.2Z" fill="white"/>
<path d="M24.0296 27.5096C23.9128 26.22 23.9576 25.32 23.9576 24.1416C24.5416 23.8352 25.588 21.8816 25.7648 20.2312C26.224 20.1936 26.948 19.7456 27.16 17.9768C27.2744 17.0272 26.82 16.4928 26.5432 16.3248C27.2904 14.0776 28.8424 7.1256 23.6728 6.4072C23.1408 5.4728 21.7784 5 20.008 5C12.9248 5.1304 12.0704 10.3488 13.6232 16.3248C13.3472 16.4928 12.8928 17.0272 13.0064 17.9768C13.2192 19.7456 13.9424 20.1936 14.4016 20.2312C14.5776 21.8808 15.6656 23.8352 16.2512 24.1416C16.2512 25.32 16.2952 26.22 16.1784 27.5096C15.1696 30.2216 9.9888 30.4336 7 33.0488C10.1248 36.1952 15.1888 38.4456 20.5328 38.4456C25.8768 38.4456 32.1584 34.2264 33.204 33.0752C30.2336 30.436 25.0408 30.2312 24.0296 27.5096Z" fill="black"/>
</g>
<defs>
<clipPath id="clip0_1_2">
<rect width="40" height="40" fill="white"/>
</clipPath>
</defs>
</svg>
